PathFileType	4	(X/Y/Z)	path1_13_0-574.trc
DataRate	CameraRate	NumFrames	NumMarkers	Units	OrigDataRate	OrigDataStartFrame	OrigNumFrames
30	30	7	22	m	30	430	574
Frame#	Time	Hip			RHip			RKnee			RAnkle			RBigToe			RSmallToe			RHeel			LHip			LKnee			LAnkle			LBigToe			LSmallToe			LHeel			Neck			Head			Nose			RShoulder			RElbow			RWrist			LShoulder			LElbow			LWrist		
		X1	Y1	Z1	X2	Y2	Z2	X3	Y3	Z3	X4	Y4	Z4	X5	Y5	Z5	X6	Y6	Z6	X7	Y7	Z7	X8	Y8	Z8	X9	Y9	Z9	X10	Y10	Z10	X11	Y11	Z11	X12	Y12	Z12	X13	Y13	Z13	X14	Y14	Z14	X15	Y15	Z15	X16	Y16	Z16	X17	Y17	Z17	X18	Y18	Z18	X19	Y19	Z19	X20	Y20	Z20	X21	Y21	Z21	X22	Y22	Z22
431	14.366666666666667	-0.10270621935196363	0.8556683217901618	-0.644929206074894	-0.09837800739674737	0.8284160294742258	-0.5459050347389387	-0.02838511778419238	0.4955547303638088	-0.527878827675986	-0.26385058106760895	0.25030318613580693	-0.5366947227989122	-0.2045770116435616	0.07161830802238146	-0.5165478434830001	-0.21627370924896047	0.0900527406358774	-0.4778253247913796	-0.3334061791897081	0.2257305245982993	-0.5375626331200236	-0.10862732423690409	0.818488492484814	-0.7323318002978975	-0.08320982873151814	0.46915581591665356	-0.7060559793192451	-0.11935751630449301	0.10023313963511774	-0.6791520266553673	0.07179716233259237	0.020391130164927048	-0.6867290007987535	0.025982735596287446	0.017674745263196952	-0.7354131256379401	-0.16100490446261348	0.028658356692309116	-0.6781699598442323	-0.0868969166921994	1.462964007784933	-0.6547197966204765	-0.037446018574127916	1.6912742147468327	-0.6569798132216791	0.08734582968751356	1.5753224140809945	-0.697442166395237	-0.12254138114085203	1.3655352672490242	-0.4775101440044394	-0.12554318711936283	1.0888886599168548	-0.43348234764350746	-0.06234399163306922	0.8598150479446283	-0.4099168467325486	-0.10917609819027385	1.3580341612961562	-0.8374355965168891	-0.11415495115903976	1.0872963098511865	-0.8709792776643814	-0.07480693500317771	0.8509398399974906	-0.8961533477322924
432	14.4	-0.07279146464096946	0.8580556938907341	-0.6459768239413245	-0.0662116454400846	0.8295050494983015	-0.5460802814960292	0.023660673222609313	0.5007689730462671	-0.5275365118385613	-0.17921561546399542	0.2298300439658378	-0.5415604018944729	-0.08172872587692884	0.07065436423749229	-0.5125807420357976	-0.0943029715896788	0.08093006073766577	-0.4829292997057559	-0.2359700506083055	0.19229760730113332	-0.5408568633837209	-0.08282991203018186	0.8188273172711993	-0.733838783403142	-0.07228897894035258	0.4704783289029045	-0.7090267170224944	-0.11533497799552447	0.10220590034037431	-0.6816128115463038	0.07128423129665443	0.020901408720704628	-0.6874395220992673	0.0253136211625916	0.017056198715859724	-0.7356584892095821	-0.15593450321341612	0.0297693473716358	-0.6807970505206293	-0.05608333115579595	1.4647091711208058	-0.6561291298538678	-0.004818164185751467	1.6914599955192353	-0.6591308757839576	0.11805121143156712	1.575349511936701	-0.6947250238059668	-0.09344266924328204	1.3691907184238545	-0.47695228472163237	-0.10550567303031749	1.0933027029053557	-0.4340674549339461	-0.05385404156561812	0.8598107705724918	-0.40885690797072144	-0.0766076708934595	1.3583071708209056	-0.8376579879760842	-0.06773212206654573	1.0894554248474375	-0.87792790129254	-0.010031217341402898	0.8564550449089684	-0.9008381758423107
433	14.433333333333334	-0.04468845731663896	0.8590509856353679	-0.6465487110970173	-0.036322464393786454	0.8293595194344034	-0.5456472000261863	0.06957004818868742	0.503126830204511	-0.5260520615155577	-0.09058503678399792	0.20461803457026742	-0.5448390681893577	0.040926077123905155	0.0674264128319647	-0.5113726017031959	0.02779330043458283	0.06904132959314421	-0.4875992367371446	-0.13379111018610787	0.15426443023428507	-0.5453853309693545	-0.058771063233483606	0.8177226800792091	-0.7351596027822683	-0.06112172991657716	0.46999277217226654	-0.7128910913082117	-0.11050669725365575	0.10415235191446105	-0.6835603308071769	0.07203153763258274	0.021732946467946025	-0.6885135686830748	0.02523985677213959	0.016698205709978643	-0.7348497037764613	-0.15151910016907189	0.031044298935301334	-0.6816487625340188	-0.02662774560668938	1.4648532757339463	-0.6563945355382298	0.026790691320704677	1.6898361038719745	-0.6593541380902277	0.14410231062538187	1.573037913784519	-0.6888849999026476	-0.06366469160490724	1.3716857089537382	-0.47485937598533023	-0.08664498998130891	1.0971666079335936	-0.4336182890068035	-0.04544467981223614	0.8593374836879563	-0.40662698659318386	-0.04497900108186167	1.3578211610529791	-0.8377847436067327	-0.024731196083544654	1.0906726027647724	-0.8847501831159208	0.052369935524137455	0.8622391326123694	-0.9040529579119801
434	14.466666666666669	-0.01746700526199247	0.8584271877684093	-0.6467136078127654	-0.007791426973788045	0.8284354162504799	-0.5447311603168687	0.11028969408111382	0.5020253752214158	-0.524464893230235	0.0006396882417081216	0.17916775047419914	-0.545478890603538	0.15660044449895305	0.06378323763247597	-0.5134390519699839	0.142647876272953	0.05848930733705662	-0.49054265317476164	-0.031691867594549936	0.11911640250529398	-0.548485815756836	-0.03555562154076225	0.8157613690003576	-0.7362653623614924	-0.04933587178837276	0.4675184179332619	-0.7167598875342259	-0.10612243328567791	0.10543532230888197	-0.684585073990479	0.07403811905981826	0.02252727129888968	-0.6900530583637433	0.026198897935869353	0.0167228435895754	-0.7327463713014248	-0.1497378504737819	0.032184416757611835	-0.6799551797529472	0.0018887454529132259	1.4634320593374996	-0.655458098672994	0.057609924739400416	1.687208326951923	-0.6576904283350778	0.16648065969939088	1.5685941327324326	-0.6804239979164982	-0.03251554803632691	1.3729069416099038	-0.47142315632443077	-0.06854979993488466	1.1000545979183276	-0.43268232544279694	-0.03641914100993432	0.8584063318511264	-0.40381432328433015	-0.01400073523068883	1.356393682267702	-0.8375947275790115	0.014229403705381664	1.0907085271607542	-0.8909671978177761	0.1110213460293547	0.8675929268911552	-0.9057345888277302
435	14.5	0.009960898582504624	0.8561391385767383	-0.6465487943504054	0.020523096810049664	0.8268613252494522	-0.5435361126161921	0.14798052526423455	0.49814852433889745	-0.5240348517668656	0.09174210428008601	0.15817858554674163	-0.5439648912042112	0.26231017944908736	0.06225627085705966	-0.5180183170912628	0.24711826903798176	0.053084411910974655	-0.49179196148344323	0.06608519670154975	0.0925667583000064	-0.5483101528006168	-0.01202277259888549	0.8133421743740816	-0.7370695650404345	-0.03684369765701363	0.4636652860737911	-0.7196485203459542	-0.1032703295015124	0.10589894253798889	-0.6843728536940603	0.07695545211880622	0.02299801760228427	-0.6918234369043706	0.02830918036902271	0.017100921011055016	-0.7301092656846594	-0.15078473705937462	0.03346984843225112	-0.6755521602070933	0.03051177617966491	1.4606343169832114	-0.6536080979220523	0.08865776383062356	1.684595168627789	-0.6543865763756928	0.1882325229673555	1.562775200856278	-0.6709273071730307	0.00024610925174950015	1.3726984828761304	-0.4672136033537943	-0.05030609789945056	1.1014378628746284	-0.43184301536548525	-0.025969137691577784	0.8569743329270129	-0.4010142641600079	0.017324888700996424	1.3540207908429747	-0.8369501858457928	0.05000033647412094	1.0899020095521645	-0.8967389492847073	0.16595753688454085	0.8721366197479951	-0.9063327360077795
436	14.533333333333331	0.038544197373706846	0.8523520923142056	-0.6461948791671305	0.049796928926409266	0.8243819505495897	-0.5423657624899668	0.18480271065827925	0.4926455581892565	-0.5251820932752804	0.1793485038214934	0.14456037231892643	-0.5418898531976	0.357725925315276	0.06507812379831401	-0.5239317518827422	0.3410727470712256	0.054640424993645076	-0.49247283609116543	0.15704324615635754	0.07677428609484711	-0.5452726805247997	0.013103894753758925	0.8104869287271566	-0.7374508441898069	-0.023523629568328427	0.45944631907234523	-0.720630489173792	-0.10224110486877695	0.1059407452532521	-0.6830378865089471	0.08001564931924525	0.022877700499818267	-0.6931517145342238	0.03135166267773959	0.017731594550620747	-0.7284019113541123	-0.15317060275659242	0.035428193628961914	-0.6692484917441209	0.06060250806460315	1.456730490309059	-0.6513618645328343	0.12135601255409421	1.6825272576771726	-0.6499051034318181	0.21321365601157494	1.5566161584865132	-0.6625881960837801	0.03445625153826957	1.3709089286676392	-0.46307934726602107	-0.030659128629610417	1.1010329755071673	-0.43134050076778513	-0.01319622673441295	0.8548783917126961	-0.3985970114316157	0.05031098344468368	1.3508598238290674	-0.8358471251390571	0.08500609883087931	1.0885907911734054	-0.9019450658209927	0.2185720727502799	0.8758610965436593	-0.9063024476313476
437	14.566666666666666	0.06866971314410167	0.8474528802996126	-0.6457511389846942	0.08073019632533907	0.8207457519153989	-0.5413764766663924	0.22190043551695973	0.48625815163573666	-0.5273061456167134	0.26024548019758154	0.13788560145274817	-0.5410554783869259	0.4430390313763484	0.07257538963840163	-0.5302145786776893	0.42480180144892254	0.06189006474290962	-0.49402805783780807	0.2396690453849946	0.07006028480661479	-0.5417117384003081	0.04062942405303659	0.8070405168590783	-0.7373004573952613	-0.00877045697357129	0.45570033656639314	-0.7191895873473552	-0.10243012159816979	0.10628841039708012	-0.6810675823714725	0.08213822329520924	0.02204587242894337	-0.693248588888255	0.03470854189234614	0.018619021025618514	-0.7285248781859543	-0.15551731448489972	0.03835159723861233	-0.6624585107928347	0.09304227987802911	1.452018902250749	-0.6491294292300607	0.15644997069806965	1.6807703063119592	-0.645004957206892	0.24373560598274677	1.5508452871385856	-0.6568994966490564	0.06973056919155317	1.3676062995027842	-0.4596407229677412	-0.008621446774808673	1.0989307308051974	-0.43099318468228354	0.0027026733851905974	0.8519182689069716	-0.396640383605414	0.08572354273967953	1.3471674098108535	-0.8342076658436473	0.12239363318896249	1.086565014851619	-0.9051974934695781	0.2707831606705123	0.8786560281503476	-0.9052251323607041
